<svg width="223" height="152" viewBox="0 0 223 152" fill="none" xmlns="http://www.w3.org/2000/svg">
<path d="M0.70783 51.7759L9.15953 0.866786H31.134C34.9124 0.866786 38.0942 1.61253 40.6794 3.104C43.2646 4.59548 45.1207 6.69183 46.2476 9.39307C47.3745 12.0943 47.6396 15.2513 47.0431 18.8639C46.4465 22.5429 45.1207 25.7165 43.0658 28.3845C41.0274 31.0361 38.4256 33.0827 35.2604 34.5245C32.1117 35.9496 28.5819 36.6622 24.6709 36.6622H11.5459L13.3357 25.9236H23.6766C25.3338 25.9236 26.7921 25.6419 28.0516 25.0784C29.3111 24.4984 30.3302 23.6864 31.1091 22.6424C31.888 21.5817 32.3934 20.3223 32.6254 18.8639C32.8575 17.4056 32.7497 16.1627 32.3023 15.1353C31.8714 14.0912 31.1257 13.2958 30.0651 12.7489C29.021 12.1854 27.687 11.9037 26.0629 11.9037H21.1908L14.5289 51.7759H0.70783ZM64.2448 30.2986L60.6652 51.7759H46.9436L55.3953 0.866786H68.6198L65.3385 20.8526H65.7362C66.9791 18.4165 68.7192 16.519 70.9564 15.1601C73.1936 13.7846 75.7291 13.0969 78.5629 13.0969C81.2476 13.0969 83.4848 13.7101 85.2746 14.9364C87.0644 16.1627 88.3321 17.8531 89.0779 20.0074C89.8236 22.1618 89.9645 24.631 89.5004 27.4151L85.4237 51.7759H71.7021L75.2817 30.2986C75.58 28.4094 75.3397 26.9262 74.5608 25.849C73.7985 24.7719 72.5473 24.2333 70.8073 24.2333C69.6804 24.2333 68.6529 24.4818 67.7249 24.979C66.8134 25.4596 66.0511 26.1556 65.4379 27.0671C64.8414 27.962 64.4436 29.0391 64.2448 30.2986ZM110.394 52.4719C106.251 52.4719 102.837 51.6516 100.152 50.011C97.484 48.3538 95.6114 46.0503 94.5342 43.1005C93.457 40.1341 93.2416 36.6954 93.8879 32.7844C94.5342 28.8734 95.8848 25.443 97.9397 22.4932C99.9946 19.5268 102.638 17.2233 105.869 15.5827C109.101 13.9255 112.796 13.0969 116.956 13.0969C121.082 13.0969 124.48 13.9255 127.148 15.5827C129.832 17.2233 131.713 19.5268 132.791 22.4932C133.884 25.443 134.108 28.8734 133.462 32.7844C132.815 36.6954 131.457 40.1341 129.385 43.1005C127.314 46.0503 124.662 48.3538 121.43 50.011C118.216 51.6516 114.537 52.4719 110.394 52.4719ZM112.084 42.3299C113.277 42.3299 114.363 41.9404 115.34 41.1615C116.335 40.3826 117.18 39.2723 117.876 37.8306C118.588 36.3888 119.11 34.6736 119.442 32.685C119.773 30.6798 119.823 28.9646 119.591 27.5394C119.359 26.0976 118.878 24.9873 118.149 24.2084C117.42 23.4295 116.459 23.0401 115.266 23.0401C114.073 23.0401 112.979 23.4295 111.984 24.2084C110.99 24.9873 110.145 26.0976 109.449 27.5394C108.753 28.9646 108.239 30.6798 107.908 32.685C107.576 34.6736 107.518 36.3888 107.734 37.8306C107.966 39.2723 108.446 40.3826 109.176 41.1615C109.921 41.9404 110.891 42.3299 112.084 42.3299ZM153.249 30.2986L149.669 51.7759H135.948L142.311 13.5941H155.337L154.144 20.8526H154.541C155.751 18.4165 157.516 16.519 159.836 15.1601C162.173 13.7846 164.75 13.0969 167.567 13.0969C170.268 13.0969 172.514 13.7101 174.303 14.9364C176.093 16.1627 177.361 17.8531 178.107 20.0074C178.852 22.1618 178.985 24.631 178.504 27.4151L174.428 51.7759H160.706L164.286 30.2986C164.6 28.4094 164.368 26.9262 163.59 25.849C162.827 24.7719 161.568 24.2333 159.811 24.2333C158.701 24.2333 157.682 24.4818 156.754 24.979C155.842 25.4596 155.08 26.1556 154.467 27.0671C153.87 27.962 153.464 29.0391 153.249 30.2986ZM199.298 52.4719C195.221 52.4719 191.841 51.693 189.156 50.1353C186.471 48.5609 184.582 46.3071 183.488 43.3739C182.395 40.4241 182.196 36.8943 182.892 32.7844C183.555 28.8403 184.922 25.3933 186.993 22.4435C189.081 19.4937 191.708 17.1985 194.873 15.5578C198.055 13.9172 201.618 13.0969 205.562 13.0969C208.446 13.0969 210.973 13.5443 213.144 14.4392C215.331 15.3341 217.113 16.635 218.488 18.3419C219.864 20.0488 220.792 22.1121 221.272 24.5316C221.77 26.9345 221.77 29.6523 221.272 32.685L220.775 35.8668H186.67L187.863 28.31H209.341C209.506 27.2162 209.399 26.255 209.017 25.4264C208.653 24.5813 208.065 23.9267 207.253 23.4627C206.457 22.9821 205.496 22.7418 204.369 22.7418C203.242 22.7418 202.182 22.9821 201.187 23.4627C200.209 23.9433 199.373 24.6144 198.677 25.4762C197.997 26.3379 197.541 27.3488 197.309 28.5088L195.818 36.4634C195.619 37.6897 195.694 38.7835 196.042 39.7446C196.39 40.7058 196.995 41.4598 197.856 42.0067C198.718 42.5536 199.828 42.827 201.187 42.827C202.115 42.827 202.994 42.7027 203.822 42.4541C204.667 42.189 205.413 41.8078 206.059 41.3107C206.722 40.7969 207.253 40.1755 207.65 39.4463H220.179C219.284 42.0978 217.867 44.4014 215.928 46.3568C214.006 48.2958 211.636 49.8038 208.819 50.881C206.018 51.9416 202.844 52.4719 199.298 52.4719ZM54.7677 101.776C54.9168 100.135 54.5191 98.8509 53.5745 97.9229C52.6299 96.9783 51.039 96.506 48.8018 96.506C47.3766 96.506 46.1834 96.6717 45.2222 97.0032C44.2776 97.3346 43.5402 97.7903 43.0099 98.3703C42.4961 98.9504 42.173 99.6215 42.0404 100.384C41.8912 100.98 41.8995 101.527 42.0653 102.024C42.2475 102.505 42.5873 102.944 43.0844 103.342C43.5982 103.74 44.2693 104.096 45.0979 104.411C45.9431 104.726 46.9457 105.007 48.1057 105.256L52.083 106.151C54.8008 106.747 57.0795 107.535 58.9189 108.512C60.775 109.474 62.2333 110.617 63.2939 111.943C64.3546 113.269 65.0506 114.752 65.382 116.392C65.73 118.033 65.7383 119.823 65.4069 121.762C64.8434 125.109 63.5425 127.943 61.5042 130.263C59.4658 132.583 56.806 134.348 53.5248 135.558C50.2435 136.768 46.4485 137.372 42.1398 137.372C37.7317 137.372 33.9864 136.718 30.904 135.409C27.8382 134.083 25.6176 132.061 24.2421 129.343C22.8832 126.609 22.5518 123.121 23.2478 118.878H36.3728C36.1739 120.436 36.3396 121.745 36.8699 122.806C37.4002 123.866 38.2537 124.67 39.4303 125.217C40.6069 125.764 42.0735 126.037 43.8302 126.037C45.3216 126.037 46.5977 125.855 47.6583 125.49C48.7189 125.126 49.5558 124.62 50.1689 123.974C50.7821 123.328 51.155 122.59 51.2876 121.762C51.4201 120.999 51.2876 120.32 50.8898 119.723C50.4921 119.127 49.7712 118.588 48.7272 118.108C47.6831 117.627 46.2497 117.188 44.4268 116.79L39.5546 115.696C35.2293 114.702 31.9646 113.061 29.7606 110.774C27.5565 108.488 26.7776 105.355 27.4239 101.378C27.9542 98.13 29.2883 95.2962 31.426 92.8767C33.5804 90.4406 36.3148 88.5514 39.6292 87.2091C42.9601 85.8502 46.6474 85.1708 50.691 85.1708C54.8008 85.1708 58.2395 85.8585 61.007 87.234C63.7911 88.6094 65.788 90.5401 66.9978 93.0259C68.2241 95.5117 68.5555 98.4283 67.9921 101.776H54.7677ZM85.778 115.299L82.1984 136.776H68.4768L76.9285 85.8668H90.153L86.8717 105.853H87.2694C88.5123 103.417 90.2524 101.519 92.4896 100.16C94.7268 98.7846 97.2623 98.0969 100.096 98.0969C102.781 98.0969 105.018 98.7101 106.808 99.9364C108.598 101.163 109.865 102.853 110.611 105.007C111.357 107.162 111.498 109.631 111.034 112.415L106.957 136.776H93.2354L96.8149 115.299C97.1132 113.409 96.8729 111.926 96.094 110.849C95.3317 109.772 94.0805 109.233 92.3405 109.233C91.2136 109.233 90.1861 109.482 89.2581 109.979C88.3466 110.46 87.5843 111.156 86.9711 112.067C86.3746 112.962 85.9768 114.039 85.778 115.299ZM131.927 137.472C127.784 137.472 124.37 136.652 121.685 135.011C119.017 133.354 117.145 131.05 116.067 128.1C114.99 125.134 114.775 121.695 115.421 117.784C116.067 113.873 117.418 110.443 119.473 107.493C121.528 104.527 124.171 102.223 127.403 100.583C130.634 98.9255 134.33 98.0969 138.489 98.0969C142.616 98.0969 146.013 98.9255 148.681 100.583C151.366 102.223 153.247 104.527 154.324 107.493C155.418 110.443 155.641 113.873 154.995 117.784C154.349 121.695 152.99 125.134 150.918 128.1C148.847 131.05 146.195 133.354 142.964 135.011C139.749 136.652 136.07 137.472 131.927 137.472ZM133.617 127.33C134.81 127.33 135.896 126.94 136.873 126.162C137.868 125.383 138.713 124.272 139.409 122.831C140.122 121.389 140.644 119.674 140.975 117.685C141.306 115.68 141.356 113.965 141.124 112.539C140.892 111.098 140.412 109.987 139.682 109.208C138.953 108.43 137.992 108.04 136.799 108.04C135.606 108.04 134.512 108.43 133.518 109.208C132.523 109.987 131.678 111.098 130.982 112.539C130.286 113.965 129.772 115.68 129.441 117.685C129.11 119.674 129.052 121.389 129.267 122.831C129.499 124.272 129.98 125.383 130.709 126.162C131.454 126.94 132.424 127.33 133.617 127.33ZM155.094 151.094L163.894 98.5941H177.516L176.422 105.256H176.721C177.417 103.963 178.328 102.778 179.455 101.701C180.599 100.608 181.941 99.7375 183.482 99.0912C185.04 98.4283 186.763 98.0969 188.653 98.0969C191.172 98.0969 193.45 98.7681 195.489 100.11C197.527 101.453 199.027 103.566 199.988 106.449C200.949 109.333 201.048 113.078 200.286 117.685C199.557 122.093 198.256 125.747 196.383 128.647C194.527 131.547 192.34 133.71 189.821 135.135C187.319 136.56 184.708 137.273 181.991 137.273C180.201 137.273 178.651 136.983 177.342 136.403C176.033 135.806 174.981 135.003 174.185 133.992C173.39 132.964 172.843 131.804 172.545 130.512H172.246L168.866 151.094H155.094ZM174.136 117.685C173.837 119.541 173.812 121.149 174.061 122.507C174.326 123.85 174.848 124.894 175.627 125.64C176.422 126.369 177.45 126.733 178.709 126.733C179.969 126.733 181.096 126.377 182.09 125.664C183.084 124.935 183.93 123.899 184.626 122.557C185.322 121.198 185.835 119.574 186.167 117.685C186.465 115.796 186.49 114.18 186.241 112.838C185.993 111.479 185.487 110.443 184.725 109.73C183.963 109.001 182.952 108.637 181.692 108.637C180.433 108.637 179.281 109.001 178.237 109.73C177.21 110.443 176.34 111.479 175.627 112.838C174.931 114.18 174.434 115.796 174.136 117.685Z" fill="#4CAF4F"/>
</svg>
